<?xml version="1.0" standalone="no"?>
<!DOCTYPE svg PUBLIC "-//W3C//DTD SVG 1.0//EN" "http://www.w3.org/TR/2001/REC-SVG-20010904/DTD/svg10.dtd">
<svg xmlns="http://www.w3.org/2000/svg" xmlns:xlink="http://www.w3.org/1999/xlink" id="body_1" width="48" height="48">

<defs>
    <clipPath  id="1">

    <path id=""  clip-rule="evenodd" transform="matrix(1 0 0 1 0 0)"  d="M36 36L0 36L0 36L0 0L0 0L36 0L36 0L36 36z" />    </clipPath>
</defs>

<g transform="matrix(1.3333 0 0 1.3333 0 0)">
	<g clip-path="url(#1)" >
    <path id=""  transform="matrix(1 0 0 -1 0 36)"  d="M23.907076 18.941626C 23.907076 18.941626 23.869276 19.288126 23.68215 19.465574L23.68215 19.465574L23.68215 19.465574C 23.5107 19.628025 23.187151 19.6224 23.187151 19.6224L23.187151 19.6224L23.187151 19.6224C 23.187151 19.6224 21.67635 19.6008 21.453224 20.315475L21.453224 20.315475L21.453224 20.315475C 21.23385 21.0198 22.9143 21.924074 23.5605 22.88385L23.5605 22.88385L23.5605 22.88385C 24.04905 23.608799 23.9421 24.159077 23.9421 24.159077L23.9421 24.159077L23.907076 26.7237C 23.907076 26.7237 23.825926 28.064701 22.790775 27.428925L22.790775 27.428925L22.790775 27.428925C 22.70595 27.37635 22.0248 27.057976 20.62545 25.522652L20.62545 25.522652L20.62545 25.522652C 19.160776 23.913975 19.397625 24.129976 16.863674 26.066326L16.863674 26.066326L16.863674 26.066326C 15.320551 27.24585 14.378475 27.717224 13.975725 27.569775L13.975725 27.569775L13.975725 27.569775C 13.590376 27.429901 13.692676 26.56215 13.692676 26.56215L13.692676 26.56215L13.710225 23.675476C 13.710225 23.675476 13.68165 23.46135 13.774725 23.30265L13.774725 23.30265L13.774725 23.30265C 13.866001 23.1477 14.078925 23.047201 14.078925 23.047201L14.078925 23.047201L14.078925 23.047201C 14.078925 23.047201 15.272625 22.590824 16.288425 21.981375L16.288425 21.981375L16.288425 21.981375C 18.430725 20.6958 18.54405 20.182125 18.411375 19.97175L18.411375 19.97175L18.411375 19.97175C 18.100725 19.482525 17.1651 19.60455 16.50045 19.60455L16.50045 19.60455L16.50045 19.60455C 14.4237 19.60455 13.558125 19.925774 13.334099 18.9801L13.334099 18.9801L13.334099 18.9801C 13.259476 18.66645 13.210575 18.435452 13.202325 17.6325L13.202325 17.6325L13.202325 17.6325C 13.1922 16.602375 13.205999 15.730875 13.442925 15.236925L13.442925 15.236925L13.442925 15.236925C 13.6005 14.908276 13.952625 14.6547 13.97295 14.80965L13.97295 14.80965L13.97295 14.80965C 13.997775 15.0003 14.087251 15.432301 14.3932495 15.661426L14.3932495 15.661426L14.3932495 15.661426C 14.788725 15.957226 15.67545 15.946876 15.67545 15.946876L15.67545 15.946876L15.67545 15.946876C 15.67545 15.946876 18.120075 16.116901 18.4233 15.549675L18.4233 15.549675L18.4233 15.549675C 18.631649 15.160875 18.2067 14.627475 16.262625 13.480875L16.262625 13.480875L16.262625 13.480875C 15.267149 12.893999 14.166525 12.45075 14.166525 12.45075L14.166525 12.45075L14.166525 12.45075C 14.166525 12.45075 13.960949 12.36525 13.850325 12.212175L13.850325 12.212175L13.850325 12.212175C 13.716675 12.0272255 13.6752 11.768925 13.6752 11.768925L13.6752 11.768925L13.692676 9.02595C 13.692676 9.02595 13.703775 8.613675 13.879799 8.462475L13.879799 8.462475L13.879799 8.462475C 14.035575 8.328224 14.359125 8.452125 14.359125 8.452125L14.359125 8.452125L14.359125 8.452125C 14.359125 8.452125 19.29165 10.599825 21.77775 13.032L21.77775 13.032L21.77775 13.032C 24.0564 15.262276 23.907076 17.79405 23.907076 17.79405L23.907076 17.79405L23.907076 17.79405L23.907076 17.79405L23.907076 18.941626zM18 -3.3065466E-15C 8.0589 -5.132697E-15 -1.4803958E-15 8.0589 -3.3065462E-15 18L-3.3065462E-15 18L-3.3065462E-15 18C -5.1326965E-15 27.9411 8.0589 36 18 36L18 36L18 36C 27.9411 36 36 27.9411 36 18L36 18L36 18C 36 8.0589 27.9411 -1.4803963E-15 18 -3.3065466E-15z" stroke="#FFFFFF" stroke-width="1" fill="#000000" fill-rule="evenodd" />
	</g>
</g>
</svg>