<?xml version="1.0" standalone="no"?>
<!DOCTYPE svg PUBLIC "-//W3C//DTD SVG 1.0//EN" "http://www.w3.org/TR/2001/REC-SVG-20010904/DTD/svg10.dtd">
<svg xmlns="http://www.w3.org/2000/svg" xmlns:xlink="http://www.w3.org/1999/xlink" id="body_1" width="24" height="24">

<defs>
    <clipPath  id="1">

    <path id=""  clip-rule="evenodd" transform="matrix(1 0 0 1 0 0)"  d="M18 0L18 18L18 18L0 18L0 18L0 0L0 0L18 0z" />    </clipPath>
    <clipPath  id="2">

    <path id=""  clip-rule="evenodd" transform="matrix(1 0 0 1 0 0)"  d="M18 18L18 18L18 18L0.00045013428 18L0.00045013428 18L0.00045013428 18L0.00045013428 18L0.00045013428 0.00045013428L0.00045013428 0.00045013428L0.00045013428 0.00045013428L0.00045013428 0.00045013428L18 0.00045013428L18 0.00045013428L18 0.00045013428L18 0.00045013428L18 18z" />    </clipPath>
</defs>

<g transform="matrix(1.3333 0 0 1.3333 0 0)">
	<g clip-path="url(#1)" >
		<g clip-path="url(#2)" >
    <path id=""  transform="matrix(1 0 0 -1 0 18)"  d="M1.5004101 11.302216L1.5004101 11.302216L1.5004101 11.302216L1.5004101 11.302216L1.5004101 11.302216L1.5004101 11.302216L1.5004101 11.302216L1.5004101 11.302216L1.5004101 11.302216L1.5004101 11.302216L1.5004101 11.302216L1.5004101 6.6973305L1.5004101 6.6973305L1.5004101 6.6973305L1.5004101 6.6973305L1.5004101 6.6973305L1.5004101 6.6973305L1.5004101 6.6973305C 1.5004101 2.4974356 2.4978857 1.49996 6.6977806 1.49996L6.6977806 1.49996L6.6977806 1.49996L6.6977806 1.49996L6.6977806 1.49996L6.6977806 1.49996L6.6977806 1.49996L6.6977806 1.49996L11.302666 1.49996L11.302666 1.49996L11.302666 1.49996L11.302666 1.49996L11.302666 1.49996L11.302666 1.49996L11.302666 1.49996C 15.502562 1.49996 16.500036 2.4974356 16.500036 6.6973305L16.500036 6.6973305L16.500036 6.6973305L16.500036 6.6973305L16.500036 6.6973305L16.500036 6.6973305L16.500036 6.6973305L16.500036 6.6973305L16.500036 11.302216L16.500036 11.302216L16.500036 11.302216L16.500036 11.302216L16.500036 11.302216L16.500036 11.302216L16.500036 11.302216C 16.500036 15.502111 15.502562 16.499586 11.302666 16.499586L11.302666 16.499586L11.302666 16.499586L11.302666 16.499586L11.302666 16.499586L11.302666 16.499586L11.302666 16.499586L11.302666 16.499586L6.6977806 16.499586L6.6977806 16.499586L6.6977806 16.499586L6.6977806 16.499586L6.6977806 16.499586L6.6977806 16.499586L6.6977806 16.499586C 2.4978857 16.499586 1.5004101 15.502111 1.5004101 11.302216M12.202644 13.612157L12.202644 13.612157L12.202644 13.612157L12.202644 13.612157L12.202644 13.612157L12.202644 13.612157L12.202644 13.612157L12.202644 13.612157L12.202644 13.612157L12.202644 13.612157L12.202644 13.612157L12.202644 12.517185L12.202644 12.517185L12.202644 12.517185L12.202644 12.517185L12.202644 12.517185L12.202644 12.517185L12.202644 12.517185C 12.202644 12.104694 11.865151 11.977198 11.122669 11.249717L11.122669 11.249717L11.122669 11.249717L11.122669 11.249717L11.122669 11.249717L11.122669 11.249717L11.122669 11.249717C 10.500185 10.589733 10.410188 10.304741 10.410188 10.147244L10.410188 10.147244L10.410188 10.147244L10.410188 10.147244L10.410188 10.147244L10.410188 10.147244L10.410188 10.147244C 10.410188 9.92975 10.470186 9.86225 10.785178 9.86225L10.785178 9.86225L10.785178 9.86225L10.785178 9.86225L10.785178 9.86225L10.785178 9.86225L10.785178 9.86225L10.785178 9.86225L11.767654 9.86225L11.767654 9.86225L11.767654 9.86225L11.767654 9.86225L11.767654 9.86225L11.767654 9.86225L11.767654 9.86225C 12.030148 9.86225 12.195143 9.779754 12.195143 9.08227L12.195143 9.08227L12.195143 9.08227L12.195143 9.08227L12.195143 9.08227L12.195143 9.08227L12.195143 9.08227C 12.195143 7.9272995 11.49016 6.6448307 10.192694 5.744855L10.192694 5.744855L10.192694 5.744855L10.192694 5.744855L10.192694 5.744855L10.192694 5.744855L10.192694 5.744855C 8.287742 4.387388 6.8477764 4.0198984 6.562784 4.0198984L6.562784 4.0198984L6.562784 4.0198984L6.562784 4.0198984L6.562784 4.0198984L6.562784 4.0198984L6.562784 4.0198984C 6.4052877 4.0198984 6.255292 4.0723953 6.255292 4.387388L6.255292 4.387388L6.255292 4.387388L6.255292 4.387388L6.255292 4.387388L6.255292 4.387388L6.255292 4.387388L6.255292 4.387388L6.255292 5.4898615L6.255292 5.4898615L6.255292 5.4898615L6.255292 5.4898615L6.255292 5.4898615L6.255292 5.4898615L6.255292 5.4898615C 6.255292 5.767353 6.375289 5.8723516 6.6752806 5.9773483L6.6752806 5.9773483L6.6752806 5.9773483L6.6752806 5.9773483L6.6752806 5.9773483L6.6752806 5.9773483L6.6752806 5.9773483C 8.250242 6.517334 9.600208 7.4173136 9.600208 7.7848034L9.600208 7.7848034L9.600208 7.7848034L9.600208 7.7848034L9.600208 7.7848034L9.600208 7.7848034L9.600208 7.7848034C 9.600208 7.9272995 9.53271 7.987298 9.187718 7.987298L9.187718 7.987298L9.187718 7.987298L9.187718 7.987298L9.187718 7.987298L9.187718 7.987298L9.187718 7.987298L9.187718 7.987298L7.575259 7.987298L7.575259 7.987298L7.575259 7.987298L7.575259 7.987298L7.575259 7.987298L7.575259 7.987298L7.575259 7.987298C 6.8402777 7.9497995 6.7727795 7.552309 6.5102854 7.552309L6.5102854 7.552309L6.5102854 7.552309L6.5102854 7.552309L6.5102854 7.552309L6.5102854 7.552309L6.5102854 7.552309C 6.375289 7.552309 6.255292 7.6573067 6.255292 7.8298025L6.255292 7.8298025L6.255292 7.8298025L6.255292 7.8298025L6.255292 7.8298025L6.255292 7.8298025L6.255292 7.8298025L6.255292 7.8298025L6.255292 9.547258L6.255292 9.547258L6.255292 9.547258L6.255292 9.547258L6.255292 9.547258L6.255292 9.547258L6.255292 9.547258C 6.255292 9.779754 6.375289 9.86225 6.660281 9.86225L6.660281 9.86225L6.660281 9.86225L6.660281 9.86225L6.660281 9.86225L6.660281 9.86225L6.660281 9.86225L6.660281 9.86225L8.827728 9.86225L8.827728 9.86225L8.827728 9.86225L8.827728 9.86225L8.827728 9.86225L8.827728 9.86225L8.827728 9.86225C 9.060221 9.86225 9.142719 9.959749 9.142719 10.034747L9.142719 10.034747L9.142719 10.034747L9.142719 10.034747L9.142719 10.034747L9.142719 10.034747L9.142719 10.034747C 9.142719 10.1697445 9.060221 10.289741 8.805228 10.537235L8.805228 10.537235L8.805228 10.537235L8.805228 10.537235L8.805228 10.537235L8.805228 10.537235L8.805228 10.537235C 7.9277496 11.324716 6.570284 11.887201 6.570284 11.887201L6.570284 11.887201L6.570284 11.887201L6.570284 11.887201L6.570284 11.887201L6.570284 11.887201L6.570284 11.887201C 6.4127884 11.962198 6.2627926 12.082196 6.2627926 12.374689L6.2627926 12.374689L6.2627926 12.374689L6.2627926 12.374689L6.2627926 12.374689L6.2627926 12.374689L6.2627926 12.374689L6.2627926 12.374689L6.2627926 13.447163L6.2627926 13.447163L6.2627926 13.447163L6.2627926 13.447163L6.2627926 13.447163L6.2627926 13.447163L6.2627926 13.447163C 6.2627926 13.777153 6.4352875 13.85215 6.667782 13.777153L6.667782 13.777153L6.667782 13.777153L6.667782 13.777153L6.667782 13.777153L6.667782 13.777153L6.667782 13.777153C 7.3052654 13.642157 9.187718 12.30719 9.187718 12.32219L9.187718 12.32219L9.187718 12.32219L9.187718 12.32219L9.187718 12.32219L9.187718 12.32219L9.187718 12.32219C 9.375214 12.202194 9.457711 12.157193 9.675205 12.32219L9.675205 12.32219L9.675205 12.32219L9.675205 12.32219L9.675205 12.32219L9.675205 12.32219L9.675205 12.32219C 9.832702 12.434687 10.162695 12.817178 10.455187 13.072171L10.455187 13.072171L10.455187 13.072171L10.455187 13.072171L10.455187 13.072171L10.455187 13.072171L10.455187 13.072171C 10.987673 13.537159 11.430162 13.897152 11.737654 13.994648L11.737654 13.994648L11.737654 13.994648L11.737654 13.994648L11.737654 13.994648L11.737654 13.994648L11.737654 13.994648C 12.045147 14.077147 12.202644 13.92715 12.202644 13.612157z" stroke="#FFFFFF" stroke-width="0.99997497" fill="#000000" fill-rule="nonzero" />
		</g>
	</g>
</g>
</svg>