<?xml version="1.0" standalone="no"?>
<!DOCTYPE svg PUBLIC "-//W3C//DTD SVG 1.0//EN" "http://www.w3.org/TR/2001/REC-SVG-20010904/DTD/svg10.dtd">
<svg xmlns="http://www.w3.org/2000/svg" xmlns:xlink="http://www.w3.org/1999/xlink" id="body_1" width="32" height="32">

<defs>
    <clipPath  id="1">

    <path id=""  clip-rule="evenodd" transform="matrix(1 0 0 1 0 0)"  d="M24 24L0 24L0 24L0 0L0 0L24 0L24 0L24 24z" />    </clipPath>
</defs>

<g transform="matrix(1.3333 0 0 1.3333 0 0)">
	<g clip-path="url(#1)" >
    <path id=""  transform="matrix(1 0 0 -1 0 24)"  d="M17.120998 19.37475L17.120998 19.37475L17.120998 19.37475L17.120998 19.37475L17.120998 19.37475L17.120998 17.6325L17.120998 17.6325L17.120998 17.6325C 17.120998 16.9725 16.597498 16.769249 15.394499 15.582L15.394499 15.582L15.394499 15.582C 14.394749 14.55075 14.261999 14.094 14.261999 13.83975L14.261999 13.83975L14.261999 13.83975C 14.261999 13.4805 14.363249 13.3785 14.855999 13.3785L14.855999 13.3785L14.855999 13.3785L14.855999 13.3785L16.430248 13.3785L16.430248 13.3785L16.430248 13.3785C 16.852499 13.3785 17.105999 13.24575 17.105999 12.12825L17.105999 12.12825L17.105999 12.12825C 17.105999 10.280251 15.988499 8.22975 13.906499 6.7920003L13.906499 6.7920003L13.906499 6.7920003C 10.855499 4.62375 8.57025 4.0305004 8.097749 4.0305004L8.097749 4.0305004L8.097749 4.0305004C 7.8434987 4.0305004 7.6057487 4.1317506 7.6057487 4.6200004L7.6057487 4.6200004L7.6057487 4.6200004L7.6057487 4.6200004L7.6057487 6.366L7.6057487 6.366L7.6057487 6.366C 7.6057487 6.80775 7.8089986 6.97575 8.281499 7.1475L8.281499 7.1475L8.281499 7.1475C 10.773748 8.01075 12.956999 9.4485 12.956999 10.04175L12.956999 10.04175L12.956999 10.04175C 12.956999 10.26075 12.855749 10.3619995 12.296999 10.3619995L12.296999 10.3619995L12.296999 10.3619995L12.296999 10.3619995L9.723 10.3619995L9.723 10.3619995L9.723 10.3619995C 8.535749 10.29525 8.433749 9.6705 8.01225 9.6705L8.01225 9.6705L8.01225 9.6705C 7.809 9.6705 7.60575 9.8385 7.60575 10.10775L7.60575 10.10775L7.60575 10.10775L7.60575 10.10775L7.60575 12.8535L7.60575 12.8535L7.60575 12.8535C 7.60575 13.2247505 7.809 13.36125 8.24625 13.36125L8.24625 13.36125L8.24625 13.36125L8.24625 13.36125L11.71875 13.36125L11.71875 13.36125L11.71875 13.36125C 12.09375 13.36125 12.2265 13.52925 12.2265 13.6305L12.2265 13.6305L12.2265 13.6305C 12.2265 13.8495 12.09375 14.037 11.687249 14.44275L11.687249 14.44275L11.687249 14.44275C 10.280999 15.69675 8.112749 16.59525 8.112749 16.59525L8.112749 16.59525L8.112749 16.59525C 7.858499 16.71225 7.620749 16.915499 7.620749 17.357248L7.620749 17.357248L7.620749 17.357248L7.620749 17.357248L7.620749 19.103249L7.620749 19.103249L7.620749 19.103249C 7.620749 19.626749 7.889999 19.743748 8.264999 19.626749L8.264999 19.626749L8.264999 19.626749C 9.280499 19.40775 12.296249 17.271 12.296249 17.271L12.296249 17.271L12.296249 17.271C 12.600749 17.08725 12.7335 17.01675 13.07325 17.271L13.07325 17.271L13.07325 17.271C 13.327499 17.4585 13.85475 18.06825 14.32725 18.473999L14.32725 18.473999L14.32725 18.473999C 15.174749 19.22025 15.88575 19.793999 16.37775 19.946999L16.37775 19.946999L16.37775 19.946999C 16.866001 20.118748 17.12025 19.865248 17.12025 19.3725zM-2.8809662E-15 15.683249L-2.8809662E-15 15.683249L-2.8809662E-15 15.683249L-2.8809662E-15 15.683249L-2.8809662E-15 15.683249L-1.5276243E-15 8.316L-1.5276243E-15 8.316L-1.5276243E-15 8.316C -2.9262942E-16 1.5930004 1.59375 -0.000749588 8.31675 -0.000749588L8.31675 -0.000749588L8.31675 -0.000749588L8.31675 -0.000749588L15.684 -0.000749588L15.684 -0.000749588L15.684 -0.000749588C 22.407 -0.000749588 24.00075 1.5930004 24.00075 8.316L24.00075 8.316L24.00075 8.316L24.00075 8.316L24.00075 15.68325L24.00075 15.68325L24.00075 15.68325C 24.00075 22.40625 22.407 24 15.684 24L15.684 24L15.684 24L15.684 24L8.31675 24L8.31675 24L8.31675 24C 1.59375 24 -4.113068E-15 22.3905 -2.8809664E-15 15.68325z" stroke="#FFFFFF" stroke-width="1" fill="#000000" fill-rule="nonzero" />
	</g>
</g>
</svg>