<?xml version="1.0" encoding="UTF-8"?>
<svg xmlns="http://www.w3.org/2000/svg" xmlns:xlink="http://www.w3.org/1999/xlink" width="65pt" height="65pt" viewBox="0 0 65 65" version="1.1">
<g id="surface1">
<path style=" stroke:none;fill-rule:nonzero;fill:rgb(95.294118%,30.980392%,16.078431%);fill-opacity:1;" d="M 38.597656 25.6875 C 34.707031 25.6875 32.777344 27.71875 32.777344 30.640625 C 32.777344 32.519531 33.71875 33.855469 34.960938 34.464844 C 34.351562 35.023438 33.84375 35.511719 33.386719 35.996094 C 32.929688 36.476562 32.648438 36.988281 32.648438 37.546875 C 32.648438 38.234375 32.929688 38.871094 33.769531 39.226562 C 32.878906 40.066406 32.371094 40.675781 32.371094 41.820312 C 32.371094 43.824219 34.125 44.996094 38.722656 44.996094 C 43.144531 44.996094 45.710938 43.34375 45.710938 40.421875 C 45.710938 37.042969 43.121094 36.914062 38.722656 36.636719 L 36.234375 36.484375 L 37.070312 35.136719 C 37.527344 35.261719 38.265625 35.363281 39.082031 35.363281 C 42.28125 35.363281 44.492188 33.714844 44.492188 30.890625 C 44.492188 29.722656 43.914062 28.910156 43.457031 28.324219 L 45.703125 28.148438 L 45.703125 25.898438 L 40.933594 25.898438 C 40.351562 25.898438 39.6875 25.6875 38.597656 25.6875 Z M 39.738281 40.167969 C 40.960938 40.242188 41.925781 40.292969 41.925781 41.109375 C 41.925781 42.480469 39.917969 42.582031 38.445312 42.582031 C 36.664062 42.582031 35.367188 42.277344 35.367188 41.261719 C 35.367188 40.753906 35.699219 40.320312 36.03125 39.914062 Z M 38.75 32.695312 C 37.070312 32.695312 36.386719 31.832031 36.386719 30.585938 C 36.386719 28.933594 37.425781 28.25 38.824219 28.25 C 40.273438 28.25 41.136719 29.035156 41.136719 30.535156 C 41.136719 31.859375 40.171875 32.695312 38.75 32.695312 Z M 50.359375 23.707031 C 51.835938 23.707031 52.675781 22.867188 52.675781 21.417969 C 52.675781 19.972656 51.835938 19.183594 50.359375 19.183594 C 48.914062 19.183594 48.074219 19.972656 48.074219 21.417969 C 48.074219 22.867188 48.914062 23.707031 50.359375 23.707031 Z M 52.304688 36.285156 L 52.304688 25.898438 L 47.363281 25.898438 L 47.082031 27.875 L 48.4375 28.320312 C 48.691406 28.394531 48.75 28.535156 48.75 28.816406 L 48.75 36.285156 C 48.75 36.667969 48.535156 36.742188 48.179688 36.796875 L 46.71875 36.972656 L 46.71875 39.101562 L 54.335938 39.101562 L 54.335938 36.972656 L 52.875 36.796875 C 52.492188 36.742188 52.304688 36.695312 52.304688 36.285156 Z M 63.6875 35.757812 C 63.078125 35.984375 62.351562 36.164062 61.640625 36.164062 C 60.269531 36.164062 59.921875 35.578125 59.921875 34.078125 L 59.921875 27.929688 L 63.476562 27.929688 L 63.476562 25.390625 L 60.105469 25.390625 C 59.902344 25.390625 59.921875 25.390625 59.921875 25.210938 L 59.921875 21.835938 L 57.488281 21.835938 C 57.207031 24.375 55.859375 25.488281 53.828125 25.746094 L 53.828125 27.929688 L 55.859375 27.929688 C 56.066406 27.929688 55.859375 28.109375 55.859375 28.261719 L 55.859375 34.917969 C 55.859375 37.792969 57.105469 39.011719 60.128906 39.011719 C 61.578125 39.011719 63.230469 38.527344 64.324219 37.996094 Z M 15.101562 19.707031 C 14.433594 19.035156 13.347656 19.035156 12.675781 19.707031 L 10.265625 22.117188 L 13.324219 25.179688 C 14.035156 24.9375 14.851562 25.101562 15.417969 25.667969 C 15.988281 26.238281 16.148438 27.058594 15.902344 27.773438 L 18.851562 30.722656 C 19.566406 30.476562 20.390625 30.636719 20.960938 31.207031 C 21.757812 32.003906 21.757812 33.296875 20.960938 34.09375 C 20.164062 34.890625 18.871094 34.890625 18.074219 34.09375 C 17.476562 33.492188 17.25 32.613281 17.554688 31.875 L 14.726562 29.121094 L 14.726562 36.363281 C 14.726562 36.457031 15.179688 36.585938 15.34375 36.75 C 16.140625 37.542969 16.179688 38.835938 15.382812 39.632812 C 14.585938 40.429688 13.3125 40.429688 12.515625 39.632812 C 11.71875 38.835938 11.730469 37.546875 12.527344 36.75 C 12.722656 36.550781 12.695312 36.402344 13.203125 36.304688 L 13.203125 28.996094 C 12.695312 28.898438 12.730469 28.75 12.535156 28.550781 C 11.933594 27.949219 11.789062 27.0625 12.097656 26.324219 L 9.078125 23.304688 L 1.113281 31.273438 C 0.441406 31.941406 0.441406 33.027344 1.113281 33.695312 L 12.730469 45.316406 C 13.402344 45.984375 14.484375 45.984375 15.15625 45.316406 L 26.722656 33.75 C 27.390625 33.078125 27.390625 31.996094 26.722656 31.324219 Z M 15.101562 19.707031 "/>
</g>
</svg>
