<?xml version="1.0" encoding="UTF-8"?>
<svg xmlns="http://www.w3.org/2000/svg" xmlns:xlink="http://www.w3.org/1999/xlink" width="65pt" height="65pt" viewBox="0 0 65 65" version="1.1">
<g id="surface1">
<path style=" stroke:none;fill-rule:evenodd;fill:rgb(16.470588%,30.196078%,50.196078%);fill-opacity:1;" d="M 62.105469 29.777344 C 61.800781 29.117188 61.652344 28.335938 61.621094 27.601562 C 61.542969 25.792969 61.609375 23.976562 61.527344 22.167969 C 61.457031 20.550781 60.878906 19.089844 59.324219 18.253906 C 57.953125 17.519531 56.367188 17.449219 54.84375 17.429688 L 54.84375 20.320312 C 55.351562 20.335938 55.226562 20.351562 55.351562 20.359375 C 57.398438 20.460938 58.082031 21.109375 58.109375 23.140625 C 58.128906 24.648438 58.113281 26.160156 58.136719 27.667969 C 58.167969 29.496094 58.441406 31.246094 60.117188 32.402344 C 60.144531 32.421875 60.140625 32.492188 60.15625 32.578125 C 59.304688 33.183594 58.632812 33.960938 58.433594 35.027344 C 58.277344 35.886719 58.1875 36.769531 58.160156 37.644531 C 58.113281 39.226562 58.164062 40.8125 58.117188 42.398438 C 58.082031 43.636719 57.496094 44.21875 56.289062 44.496094 C 55.832031 44.601562 55.351562 44.636719 54.84375 44.703125 L 54.84375 47.585938 C 55.859375 47.523438 56.375 47.484375 57.070312 47.40625 C 59.691406 47.125 61.164062 45.761719 61.464844 43.222656 C 61.5625 42.425781 61.550781 41.613281 61.566406 40.808594 C 61.601562 39.300781 61.582031 37.789062 61.71875 36.289062 C 61.855469 34.761719 62.96875 33.914062 64.492188 34 L 64.492188 30.976562 C 63.476562 31.160156 62.539062 30.71875 62.105469 29.777344 Z M 14.378906 35.9375 C 14.378906 30.070312 14.21875 24.207031 14.21875 18.34375 L 14.21875 17.421875 C 12.695312 17.421875 11.058594 17.40625 9.449219 17.425781 C 8.796875 17.4375 8.222656 17.492188 7.574219 17.582031 C 5.097656 17.917969 3.90625 19.078125 3.464844 21.546875 C 3.339844 22.257812 3.363281 23 3.355469 23.726562 C 3.332031 25.113281 3.375 26.496094 3.351562 27.878906 C 3.324219 29.625 2.503906 30.972656 0.726562 31.078125 C 0.660156 31.082031 1.015625 31.152344 0.507812 31.195312 L 0.507812 33.890625 C 2.539062 34.210938 3.183594 35.03125 3.320312 36.917969 C 3.34375 37.21875 3.347656 37.519531 3.351562 37.824219 C 3.367188 39.507812 3.347656 41.195312 3.425781 42.878906 C 3.496094 44.449219 3.84375 45.855469 5.328125 46.679688 C 6.714844 47.449219 8.632812 47.511719 9.648438 47.550781 L 9.648438 44.675781 C 9.648438 44.648438 9.542969 44.628906 9.441406 44.621094 C 7.238281 44.488281 6.742188 43.890625 6.730469 41.683594 C 6.722656 40.222656 6.785156 38.765625 6.761719 37.304688 C 6.730469 35.46875 6.460938 33.730469 4.800781 32.570312 C 4.777344 32.550781 4.800781 32.476562 4.792969 32.375 C 5.910156 31.667969 6.503906 30.589844 6.664062 29.28125 C 6.753906 28.558594 6.785156 27.824219 6.796875 27.097656 C 6.824219 25.585938 6.796875 24.074219 6.835938 22.566406 C 6.867188 21.507812 7.542969 20.734375 8.40625 20.558594 C 9.226562 20.394531 9.648438 20.398438 11.171875 20.324219 L 11.171875 21.367188 C 11.171875 26.601562 10.984375 31.839844 11.011719 37.074219 C 11.023438 38.867188 11.222656 40.632812 13.144531 41.410156 C 14.1875 41.828125 15.308594 41.960938 16.507812 42.242188 C 16.710938 41.070312 16.773438 40.09375 16.9375 39.132812 C 14.726562 38.496094 14.378906 38.167969 14.378906 35.9375 Z M 27.921875 25.835938 C 24.195312 24.050781 19.671875 25.609375 17.9375 29.347656 C 16.628906 32.164062 16.675781 35.0625 17.828125 37.917969 C 18.453125 39.464844 19.578125 40.625 21.113281 41.304688 C 24.113281 42.636719 27.148438 42.3125 30.167969 41.378906 C 30.332031 41.328125 30.539062 41.015625 30.519531 40.847656 C 30.417969 40.003906 30.246094 39.167969 30.09375 38.296875 C 29.375 38.480469 28.773438 38.664062 28.160156 38.78125 C 26.535156 39.085938 24.90625 39.085938 23.328125 38.457031 C 21.769531 37.835938 20.722656 36.054688 20.980469 34.53125 L 31.582031 34.53125 C 31.710938 33.007812 31.660156 30.914062 31.011719 29.179688 C 30.429688 27.632812 29.433594 26.554688 27.921875 25.835938 Z M 27.902344 31.992188 L 20.9375 31.992188 C 20.941406 29.960938 22.59375 28.136719 24.761719 28.179688 C 26.667969 28.214844 27.988281 29.960938 27.902344 31.992188 Z M 56.394531 38.226562 C 56.644531 35.660156 55.867188 34.21875 53.582031 33.101562 C 52.773438 32.707031 51.914062 32.414062 51.085938 32.046875 C 50.46875 31.773438 49.847656 31.496094 49.269531 31.148438 C 48.707031 30.808594 48.46875 30.25 48.554688 29.59375 C 48.636719 28.945312 49.050781 28.515625 49.65625 28.394531 C 50.382812 28.246094 51.148438 28.117188 51.882812 28.179688 C 52.921875 28.265625 53.941406 28.53125 55.011719 28.726562 L 55.6875 25.769531 C 54.242188 25.550781 52.890625 25.265625 51.527344 25.15625 C 50.011719 25.039062 48.535156 25.289062 47.144531 26.003906 C 44.210938 27.515625 44.15625 32.160156 46.855469 33.683594 C 47.660156 34.136719 48.519531 34.492188 49.359375 34.890625 C 50.242188 35.308594 51.15625 35.675781 52 36.160156 C 52.640625 36.53125 52.867188 37.175781 52.695312 37.925781 C 52.539062 38.625 52.007812 38.9375 51.386719 38.996094 C 50.445312 39.085938 49.476562 39.171875 48.539062 39.058594 C 47.414062 38.925781 46.3125 38.585938 45.160156 38.324219 L 44.570312 41.265625 C 47.28125 42.28125 49.960938 42.445312 52.664062 41.847656 C 54.929688 41.34375 56.21875 40.019531 56.394531 38.226562 Z M 41.964844 33.429688 C 40.96875 32.898438 39.898438 32.515625 38.871094 32.046875 C 38.234375 31.753906 37.558594 31.5 37 31.09375 C 35.917969 30.316406 36.121094 28.824219 37.378906 28.425781 C 38.097656 28.195312 38.914062 28.125 39.671875 28.179688 C 40.707031 28.257812 41.726562 28.527344 42.800781 28.722656 L 43.441406 25.90625 C 42.894531 25.753906 42.398438 25.59375 41.890625 25.488281 C 39.875 25.0625 37.847656 24.898438 35.863281 25.597656 C 34.15625 26.195312 32.972656 27.320312 32.738281 29.207031 C 32.476562 31.316406 33.175781 32.980469 35.121094 33.980469 C 35.902344 34.382812 36.738281 34.671875 37.535156 35.046875 C 38.328125 35.414062 39.136719 35.769531 39.875 36.234375 C 40.441406 36.589844 40.664062 37.191406 40.503906 37.886719 C 40.347656 38.578125 39.84375 38.925781 39.21875 38.988281 C 38.273438 39.085938 37.304688 39.175781 36.367188 39.066406 C 35.238281 38.933594 34.132812 38.59375 32.960938 38.328125 C 32.785156 39.148438 32.582031 39.972656 32.457031 40.808594 C 32.429688 40.992188 32.632812 41.339844 32.800781 41.398438 C 35.535156 42.347656 38.320312 42.484375 41.101562 41.664062 C 42.761719 41.175781 43.921875 40.113281 44.15625 38.300781 C 44.421875 36.242188 43.929688 34.46875 41.964844 33.429688 Z M 41.964844 33.429688 "/>
</g>
</svg>
